<svg id="Capa_1" enable-background="new 0 0 512 512" height="512" viewBox="0 0 512 512" width="512" xmlns="http://www.w3.org/2000/svg"><g><g><path d="m492.723 260.277h-3.123c.314-1.378.495-2.806.495-4.277v-11.777c0-10.63-8.647-19.277-19.277-19.277h-42.393c-4.58-4.207-10.742-6.613-16.964-6.595h-11.461c-4.143 0-7.5 3.357-7.5 7.5s3.357 7.5 7.5 7.5h11.46c.35 0 .697.018 1.038.053 5.12.522 9.127 4.858 9.127 10.113v59.159h-10.913c-5.193 0-9.418-4.226-9.418-9.419v-33.724c0-3.414-2.306-6.397-5.609-7.258-3.305-.861-6.773.62-8.438 3.6l-10.417 18.643c-3.874 6.933-11.215 11.239-19.156 11.239h-6.278c-4.143 0-7.5 3.357-7.5 7.5s3.357 7.5 7.5 7.5h6.278c11.193 0 21.676-5.081 28.62-13.584v6.084c0 4.583 1.271 8.875 3.477 12.543-1.461 2.708-2.299 5.798-2.299 9.087v11.776c0 4.437 1.521 8.516 4.05 11.777-2.528 3.261-4.05 7.341-4.05 11.777v11.777c0 1.472.181 2.899.495 4.277h-23.875c-5.79 0-11.454-2.352-15.542-6.453l-18.543-18.604c-6.881-6.904-16.418-10.864-26.166-10.864h-18.917c4.115-5.625 3.65-13.577-1.427-18.655l-16.655-16.654c2.308-4.533 4.272-9.264 5.847-14.073h23.535c7.421 0 13.545-5.648 14.306-12.871 6.967-1.244 13.419-4.46 18.671-9.376.128-.11.257-.218.378-.338l18.959-18.71c4.132-4.078 9.605-6.324 15.412-6.324h1.05c4.143 0 7.5-3.357 7.5-7.5s-3.357-7.5-7.5-7.5h-1.052c-9.775 0-18.991 3.781-25.949 10.648l-18.604 18.359c-2.508 2.475-5.514 4.264-8.785 5.296v-19.013c0-7.933-6.454-14.387-14.388-14.387h-23.535c-1.573-4.81-3.539-9.542-5.847-14.074l16.655-16.654c5.608-5.609 5.608-14.736-.001-20.348l-23.292-23.291c-5.61-5.608-14.737-5.608-20.346 0l-16.656 16.657c-4.534-2.308-9.265-4.273-14.073-5.847v-23.536c0-7.933-6.454-14.387-14.387-14.387h-32.94c-7.933 0-14.387 6.454-14.387 14.387v23.537c-4.804 1.571-9.534 3.536-14.073 5.846l-16.654-16.654c-5.611-5.608-14.738-5.608-20.346 0l-23.294 23.292c-5.609 5.609-5.609 14.737 0 20.347l16.655 16.654c-2.31 4.538-4.274 9.271-5.846 14.074h-23.537c-7.933 0-14.387 6.454-14.387 14.387v32.939c0 7.934 6.454 14.388 14.387 14.388h23.537c1.57 4.803 3.535 9.533 5.846 14.073l-16.655 16.654c-5.609 5.61-5.609 14.737.001 20.348l23.292 23.292c5.609 5.606 14.735 5.609 20.347-.001l16.654-16.654c4.536 2.308 9.267 4.273 14.073 5.847v23.536c0 7.933 6.454 14.387 14.387 14.387h32.94c7.933 0 14.387-6.454 14.387-14.387v-23.536c4.811-1.574 9.542-3.54 14.074-5.847l16.654 16.655c5.611 5.609 14.738 5.609 20.346 0l9.985-9.984h33.653c5.79 0 11.454 2.352 15.542 6.453l18.543 18.604c6.881 6.904 16.418 10.864 26.166 10.864h60.91c4.143 0 7.5-3.357 7.5-7.5s-3.357-7.5-7.5-7.5h-18.251c-2.358 0-4.277-1.919-4.277-4.277v-11.777c0-2.358 1.919-4.277 4.277-4.277h64.068c2.358 0 4.276 1.919 4.276 4.277v11.777c0 2.358-1.918 4.277-4.276 4.277h-10.817c-4.143 0-7.5 3.357-7.5 7.5s3.357 7.5 7.5 7.5h10.817c10.629 0 19.276-8.647 19.276-19.277v-11.777c0-1.948-.296-3.827-.836-5.6 7.192-2.801 12.31-9.783 12.31-17.954v-11.776c0-2.089-.344-4.096-.962-5.982 6.706-3.021 11.393-9.754 11.393-17.573v-11.777c.002-10.632-8.645-19.28-19.275-19.28zm-242.694 84.018-16.541-16.541c-4.435-4.436-11.192-5.474-16.808-2.586-4.026 2.068-8.24 3.819-12.524 5.203-5.999 1.938-10.029 7.444-10.029 13.703v23.376h-31.714v-23.376c0-6.261-4.031-11.768-10.029-13.703-4.278-1.382-8.493-3.133-12.524-5.204-5.616-2.886-12.371-1.848-16.808 2.587l-16.54 16.541-22.426-22.425 16.542-16.541c4.435-4.436 5.474-11.189 2.587-16.806-2.072-4.035-3.822-8.249-5.203-12.526-1.938-5.998-7.444-10.028-13.704-10.028h-23.376v-31.714h23.376c6.26 0 11.767-4.03 13.705-10.031 1.38-4.277 3.131-8.491 5.201-12.521 2.888-5.619 1.849-12.373-2.586-16.809l-16.541-16.54 22.425-22.425 16.54 16.54c4.435 4.435 11.189 5.474 16.807 2.587 4.034-2.071 8.247-3.822 12.525-5.203 5.999-1.938 10.029-7.444 10.029-13.704v-23.376h31.714v23.376c0 6.259 4.03 11.766 10.029 13.703 4.281 1.383 8.495 3.134 12.525 5.205 5.618 2.884 12.373 1.844 16.806-2.588l16.542-16.54 22.426 22.424-16.542 16.541c-4.433 4.434-5.473 11.188-2.586 16.808 2.069 4.027 3.82 8.241 5.203 12.524 1.938 5.999 7.444 10.029 13.703 10.029h23.376v31.714h-23.376c-6.259 0-11.766 4.03-13.703 10.029-1.383 4.282-3.134 8.496-5.204 12.524-2.886 5.619-1.846 12.373 2.587 16.807l16.542 16.541zm225.066-100.072v11.777c0 2.358-1.919 4.277-4.277 4.277h-34.192v-16.741c0-.007.001-.013.001-.019 0-.57-.026-1.134-.063-1.695-.006-.081-.012-.161-.019-.242-.042-.55-.099-1.096-.176-1.635h34.449c2.358 0 4.277 1.919 4.277 4.278zm11.473 82.44c0 2.358-1.919 4.277-4.277 4.277h-11.474-64.068c-2.358 0-4.277-1.919-4.277-4.277v-10.422c2.576.926 5.35 1.434 8.24 1.434h12.524c5.097 0 9.535-2.864 11.797-7.066h47.258c2.358 0 4.277 1.919 4.277 4.277zm10.432-35.331c0 2.358-1.919 4.277-4.277 4.277h-10.432-45.666v-20.332h34.192 21.905c2.358 0 4.277 1.919 4.277 4.277v11.778z"/><path d="m234.981 258.798c-3.972-1.156-8.139 1.132-9.294 5.11-6.086 20.954-25.585 35.589-47.417 35.589-27.231 0-49.386-22.154-49.386-49.386s22.154-49.386 49.386-49.386c20.828 0 39.524 13.179 46.521 32.794 1.392 3.902 5.686 5.935 9.584 4.545 3.901-1.393 5.937-5.683 4.545-9.584-9.123-25.573-33.495-42.755-60.649-42.755-35.502 0-64.386 28.884-64.386 64.386s28.884 64.386 64.386 64.386c28.464 0 53.886-19.083 61.821-46.405 1.155-3.978-1.133-8.139-5.111-9.294z"/><path d="m145.177 250.111c0 18.247 14.846 33.093 33.094 33.093 18.247 0 33.093-14.846 33.093-33.093s-14.846-33.093-33.093-33.093c-18.249.001-33.094 14.846-33.094 33.093zm51.186 0c0 9.977-8.116 18.093-18.093 18.093s-18.094-8.116-18.094-18.093 8.117-18.093 18.094-18.093 18.093 8.117 18.093 18.093z"/><path d="m373.339 185.337c0 4.143 3.357 7.5 7.5 7.5h91.862c4.143 0 7.5-3.357 7.5-7.5s-3.357-7.5-7.5-7.5h-91.862c-4.143 0-7.5 3.357-7.5 7.5z"/><path d="m418.526 403.96h-81.264c-4.143 0-7.5 3.357-7.5 7.5s3.357 7.5 7.5 7.5h81.264c4.143 0 7.5-3.357 7.5-7.5s-3.357-7.5-7.5-7.5z"/><path d="m378.483 440.469h-113.061c-4.143 0-7.5 3.357-7.5 7.5s3.357 7.5 7.5 7.5h113.062c4.143 0 7.5-3.357 7.5-7.5s-3.358-7.5-7.501-7.5z"/><path d="m216.462 429.896c-3.817-1.232-7.052-2.449-9.836-3.781 33.682-5.406 65.235-20.379 90.904-43.496 3.077-2.772 3.325-7.515.554-10.593-2.774-3.078-7.516-3.325-10.593-.554-26.45 23.821-59.722 38.193-94.921 41.27-1.607-3.082-3.028-6.746-4.469-11.209-1.352-4.184-5.217-6.995-9.619-6.995 0 0-.001 0-.002 0-4.401.001-8.266 2.813-9.616 6.996-1.448 4.483-2.875 8.159-4.492 11.249-83.547-7.078-149.372-77.327-149.372-162.672 0-90.027 73.243-163.271 163.271-163.271 35.973 0 70.087 11.468 98.654 33.165 7.675 5.829 14.805 12.339 21.312 19.408-2.902 1.035-4.983 3.8-4.983 7.058 0 4.143 3.357 7.5 7.5 7.5h9.423c11.022 15.109 19.474 32.052 24.746 49.97 1.17 3.973 5.332 6.25 9.313 5.078 3.974-1.17 6.247-5.339 5.078-9.313-4.751-16.146-11.867-31.567-20.969-45.735h98.426c4.143 0 7.5-3.357 7.5-7.5s-3.357-7.5-7.5-7.5h-109.184c-9.193-11.531-19.801-21.958-31.59-30.911-31.198-23.695-68.449-36.22-107.727-36.22-98.298.001-178.27 79.973-178.27 178.271 0 88.762 65.213 162.56 150.24 176.047-2.764 1.315-5.968 2.518-9.743 3.737-4.183 1.352-6.993 5.218-6.993 9.619s2.811 8.268 6.995 9.619c17.432 5.629 22.733 10.931 28.362 28.36 1.35 4.185 5.215 6.997 9.617 6.998h.002c4.402-.001 8.268-2.812 9.619-6.996 5.629-17.432 10.931-22.733 28.363-28.362 4.184-1.352 6.995-5.217 6.995-9.619s-2.811-8.267-6.995-9.618zm-37.982 31.086c-4.927-10.176-11.293-16.542-21.468-21.468 10.176-4.927 16.541-11.292 21.468-21.468 4.927 10.176 11.292 16.541 21.468 21.468-10.176 4.927-16.541 11.293-21.468 21.468z"/><path d="m303.025 82.104c17.432 5.63 22.733 10.932 28.362 28.364 1.352 4.184 5.217 6.995 9.619 6.995h.002c4.402-.001 8.268-2.813 9.616-6.996 5.63-17.432 10.932-22.733 28.362-28.362 4.184-1.351 6.995-5.216 6.996-9.617.001-4.402-2.81-8.269-6.995-9.621-17.432-5.629-22.733-10.931-28.362-28.36-1.35-4.185-5.215-6.997-9.617-6.998-.001 0-.001 0-.002 0-4.402 0-8.268 2.812-9.619 6.995v.001c-5.629 17.432-10.931 22.733-28.363 28.362-4.185 1.352-6.995 5.218-6.995 9.621.001 4.402 2.814 8.267 6.996 9.616zm37.982-31.086c4.927 10.176 11.292 16.541 21.468 21.468-10.176 4.927-16.541 11.291-21.468 21.468-4.927-10.176-11.291-16.541-21.469-21.468 10.177-4.927 16.542-11.293 21.469-21.468z"/></g></g></svg>