<svg width="248" height="271" viewBox="0 0 248 271" fill="none" xmlns="http://www.w3.org/2000/svg">
<ellipse cx="123.547" cy="147.699" rx="123.547" ry="123.006" fill="#8428F8"/>
<mask id="mask0" style="mask-type:alpha" maskUnits="userSpaceOnUse" x="0" y="24" width="248" height="247">
<ellipse cx="123.547" cy="147.699" rx="123.547" ry="123.006" fill="#8428F8"/>
</mask>
<g mask="url(#mask0)">
<path fill-rule="evenodd" clip-rule="evenodd" d="M123.439 19.925C156.015 19.925 182.424 46.2179 182.424 78.6519L182.425 85.1182C188.402 86.1171 192.957 91.2931 192.957 97.5284V112.21C192.957 118.557 188.237 123.807 182.101 124.67C179.925 145.439 166.875 162.99 148.719 171.577L148.718 190.862H152.931C194.815 190.862 228.769 224.667 228.769 266.368V275.806H18.1085V266.368C18.1085 224.667 52.0622 190.862 93.9463 190.862H98.1595L98.1595 171.578C80.0033 162.99 66.9524 145.44 64.7752 124.67C58.6404 123.807 53.9208 118.557 53.9208 112.21V97.5284C53.9208 91.2928 58.476 86.1164 64.454 85.118L64.4538 78.6519C64.4538 46.2179 90.8623 19.925 123.439 19.925Z" fill="#D4A181"/>
<mask id="mask1" style="mask-type:alpha" maskUnits="userSpaceOnUse" x="18" y="174" width="211" height="102">
<path fill-rule="evenodd" clip-rule="evenodd" d="M148.719 174.158C167.784 176.282 182.424 182.12 182.424 197.235L182.418 196.782C209.655 208.236 228.769 235.08 228.769 266.368V275.806H18.1085V266.368C18.1085 235.079 37.2232 208.236 64.4604 196.781C64.7498 182.002 79.2864 176.26 98.1593 174.157L98.1595 194.008C98.1595 207.909 109.477 219.177 123.439 219.177C137.4 219.177 148.718 207.909 148.718 194.008L148.719 174.158Z" fill="white"/>
</mask>
<g mask="url(#mask1)">
<path fill-rule="evenodd" clip-rule="evenodd" d="M148.719 174.158C167.784 176.282 182.424 182.12 182.424 197.235L182.418 196.782C209.655 208.236 228.769 235.08 228.769 266.368V275.806H18.1085V266.368C18.1085 235.079 37.2232 208.236 64.4604 196.781C64.7498 182.002 79.2864 176.26 98.1593 174.157L98.1595 194.008C98.1595 207.909 109.477 219.177 123.439 219.177C137.4 219.177 148.718 207.909 148.718 194.008L148.719 174.158Z" fill="#456278"/>
<path fill-rule="evenodd" clip-rule="evenodd" d="M91.8393 225.195L91.8397 275.806H84.4666L84.4656 221.431C86.787 222.805 89.2551 224.064 91.8393 225.195ZM162.412 221.431L162.411 263.747C162.411 265.774 160.76 267.417 158.724 267.417C156.688 267.417 155.038 265.774 155.038 263.747L155.039 225.195C157.623 224.064 160.091 222.805 162.412 221.431Z" fill="#F4F4F4"/>
<path fill-rule="evenodd" clip-rule="evenodd" d="M166.667 173.794C182.52 176.78 193.483 182.728 193.483 194.331C193.483 215.003 158.685 231.761 123.439 231.761C88.1928 231.761 53.3941 215.003 53.3941 194.331C53.3941 182.728 64.3577 176.78 80.2101 173.794C70.6418 177.308 64.4538 183.213 64.4538 193.04C64.4538 214.425 93.758 231.761 123.439 231.761C153.12 231.761 182.424 214.425 182.424 193.04C182.424 183.417 176.49 177.554 167.258 174.016L166.667 173.794Z" fill="black" fill-opacity="0.16"/>
</g>
</g>
<path fill-rule="evenodd" clip-rule="evenodd" d="M148.719 171.577L148.72 179.966C141.058 183.591 132.486 185.619 123.439 185.619C114.392 185.619 105.82 183.591 98.1585 179.967L98.1595 171.578L98.0293 171.516C105.724 175.179 114.341 177.229 123.439 177.229C132.863 177.229 141.771 175.029 149.673 171.116C149.357 171.272 149.039 171.426 148.719 171.577ZM64.4538 118.502C64.4538 120.677 64.5726 122.824 64.8039 124.938C64.7942 124.849 64.7846 124.759 64.7752 124.67C64.6676 124.655 64.5605 124.638 64.4539 124.62L64.4538 118.502ZM182.424 118.502L182.424 124.621C182.317 124.638 182.209 124.655 182.101 124.67L182.143 124.27C182.298 122.689 182.39 121.089 182.416 119.474L182.424 118.502Z" fill="black" fill-opacity="0.1"/>
<mask id="mask2" style="mask-type:alpha" maskUnits="userSpaceOnUse" x="103" y="136" width="41" height="21">
<path fill-rule="evenodd" clip-rule="evenodd" d="M103.55 138.562C104.664 148.516 113.144 156.255 123.439 156.255C133.766 156.255 142.266 148.468 143.338 138.469C143.424 137.665 142.521 136.33 141.39 136.33C125.702 136.33 113.683 136.33 105.624 136.33C104.486 136.33 103.439 137.566 103.55 138.562Z" fill="white"/>
</mask>
<g mask="url(#mask2)">
<path fill-rule="evenodd" clip-rule="evenodd" d="M103.55 138.562C104.664 148.516 113.144 156.255 123.439 156.255C133.766 156.255 142.266 148.468 143.338 138.469C143.424 137.665 142.521 136.33 141.39 136.33C125.702 136.33 113.683 136.33 105.624 136.33C104.486 136.33 103.439 137.566 103.55 138.562Z" fill="black" fill-opacity="0.7"/>
<path fill-rule="evenodd" clip-rule="evenodd" d="M112.906 124.794H135.025C137.934 124.794 140.292 127.142 140.292 130.038V136.33C140.292 139.226 137.934 141.574 135.025 141.574H112.906C109.997 141.574 107.639 139.226 107.639 136.33V130.038C107.639 127.142 109.997 124.794 112.906 124.794Z" fill="white"/>
<path d="M118.172 170.937C124.571 170.937 129.759 165.772 129.759 159.401C129.759 153.03 124.571 147.866 118.172 147.866C111.773 147.866 106.586 153.03 106.586 159.401C106.586 165.772 111.773 170.937 118.172 170.937Z" fill="#FF4F6D"/>
<path d="M128.705 170.937C135.104 170.937 140.292 165.772 140.292 159.401C140.292 153.03 135.104 147.866 128.705 147.866C122.306 147.866 117.119 153.03 117.119 159.401C117.119 165.772 122.306 170.937 128.705 170.937Z" fill="#FF4F6D"/>
</g>
<path fill-rule="evenodd" clip-rule="evenodd" d="M110.799 118.502C110.799 123.136 116.458 126.892 123.439 126.892C130.419 126.892 136.078 123.136 136.078 118.502" fill="black" fill-opacity="0.16"/>
<path fill-rule="evenodd" clip-rule="evenodd" d="M81.4754 100.095C83.4203 96.1112 87.7997 93.3337 92.8905 93.3337C97.9633 93.3337 102.33 96.0916 104.285 100.053C104.866 101.23 104.039 102.193 103.205 101.479C100.624 99.2691 96.9574 97.889 92.8905 97.889C88.9507 97.889 85.3869 99.1841 82.8208 101.274C81.8826 102.038 80.9065 101.26 81.4754 100.095Z" fill="black" fill-opacity="0.6"/>
<path fill-rule="evenodd" clip-rule="evenodd" d="M142.567 100.095C144.512 96.1112 148.891 93.3337 153.982 93.3337C159.055 93.3337 163.421 96.0916 165.376 100.053C165.957 101.23 165.131 102.193 164.297 101.479C161.715 99.2691 158.049 97.889 153.982 97.889C150.042 97.889 146.478 99.1841 143.912 101.274C142.974 102.038 141.998 101.26 142.567 100.095Z" fill="black" fill-opacity="0.6"/>
<path d="M81.2812 86.1269C82.8561 76.14 96.1146 69.3276 105.705 73.7241C106.762 74.2086 108.013 73.7484 108.499 72.6962C108.986 71.644 108.524 70.3983 107.467 69.9139C95.367 64.3668 79.1324 72.7084 77.119 85.4762C76.9385 86.6206 77.724 87.6939 78.8733 87.8736C80.0227 88.0532 81.1007 87.2712 81.2812 86.1269Z" fill="black" fill-opacity="0.6"/>
<path d="M165.597 86.1269C164.022 76.14 150.763 69.3276 141.173 73.7241C140.116 74.2086 138.865 73.7484 138.378 72.6962C137.892 71.644 138.354 70.3983 139.411 69.9139C151.511 64.3668 167.745 72.7084 169.759 85.4762C169.939 86.6206 169.154 87.6939 168.005 87.8736C166.855 88.0532 165.777 87.2712 165.597 86.1269Z" fill="black" fill-opacity="0.6"/>
<mask id="mask3" style="mask-type:alpha" maskUnits="userSpaceOnUse" x="64" y="84" width="121" height="95">
<path fill-rule="evenodd" clip-rule="evenodd" d="M142.85 160.627C140.202 163.033 137.382 164.114 133.817 163.358C133.204 163.228 130.703 158.599 124.492 158.599C118.281 158.599 115.781 163.228 115.167 163.358C111.602 164.114 108.782 163.033 106.134 160.627C101.157 156.104 97.0184 149.867 99.5055 143.062C100.802 139.515 102.91 135.621 106.745 134.491C110.84 133.284 116.589 134.488 120.716 133.665C122.053 133.397 123.513 132.923 124.492 132.135C125.471 132.923 126.931 133.397 128.268 133.665C132.395 134.488 138.144 133.284 142.239 134.491C146.074 135.621 148.182 139.515 149.479 143.062C151.966 149.867 147.827 156.104 142.85 160.627ZM183.562 84.9441C179.97 93.7534 181.358 104.72 180.693 113.968C180.153 121.484 178.566 132.75 171.862 137.604C168.434 140.086 162.194 144.258 157.715 143.094C154.632 142.293 154.303 133.488 150.251 130.192C145.655 126.454 139.916 124.811 134.129 125.065C131.632 125.174 126.582 125.148 124.492 127.06C122.402 125.148 117.352 125.174 114.855 125.065C109.068 124.811 103.329 126.454 98.7331 130.192C94.6812 133.488 94.3525 142.293 91.2692 143.094C86.79 144.258 80.5502 140.086 77.1219 137.604C70.4181 132.75 68.8315 121.484 68.2909 113.968C67.6265 104.72 69.0138 93.7534 65.4216 84.9441C63.6741 84.9441 64.8267 101.858 64.8267 101.858V123.206C64.8601 139.238 74.9185 163.235 97.22 172.398C102.674 174.639 115.029 178.278 124.492 178.278C133.956 178.278 146.31 174.985 151.764 172.744C174.066 163.581 184.124 139.238 184.158 123.206V101.858C184.158 101.858 185.31 84.9441 183.562 84.9441Z" fill="white"/>
</mask>
<g mask="url(#mask3)">
<path fill-rule="evenodd" clip-rule="evenodd" d="M142.85 160.627C140.202 163.033 137.382 164.114 133.817 163.358C133.204 163.228 130.703 158.599 124.492 158.599C118.281 158.599 115.781 163.228 115.167 163.358C111.602 164.114 108.782 163.033 106.134 160.627C101.157 156.104 97.0184 149.867 99.5055 143.062C100.802 139.515 102.91 135.621 106.745 134.491C110.84 133.284 116.589 134.488 120.716 133.665C122.053 133.397 123.513 132.923 124.492 132.135C125.471 132.923 126.931 133.397 128.268 133.665C132.395 134.488 138.144 133.284 142.239 134.491C146.074 135.621 148.182 139.515 149.479 143.062C151.966 149.867 147.827 156.104 142.85 160.627ZM183.562 84.9441C179.97 93.7534 181.358 104.72 180.693 113.968C180.153 121.484 178.566 132.75 171.862 137.604C168.434 140.086 162.194 144.258 157.715 143.094C154.632 142.293 154.303 133.488 150.251 130.192C145.655 126.454 139.916 124.811 134.129 125.065C131.632 125.174 126.582 125.148 124.492 127.06C122.402 125.148 117.352 125.174 114.855 125.065C109.068 124.811 103.329 126.454 98.7331 130.192C94.6812 133.488 94.3525 142.293 91.2692 143.094C86.79 144.258 80.5502 140.086 77.1219 137.604C70.4181 132.75 68.8315 121.484 68.2909 113.968C67.6265 104.72 69.0138 93.7534 65.4216 84.9441C63.6741 84.9441 64.8267 101.858 64.8267 101.858V123.206C64.8601 139.238 74.9185 163.235 97.22 172.398C102.674 174.639 115.029 178.278 124.492 178.278C133.956 178.278 146.31 174.985 151.764 172.744C174.066 163.581 184.124 139.238 184.158 123.206V101.858C184.158 101.858 185.31 84.9441 183.562 84.9441Z" fill="#1F1F1F"/>
</g>
<path fill-rule="evenodd" clip-rule="evenodd" d="M173.102 24.0365C170.195 21.0792 166.82 18.569 163.537 16.0519C162.813 15.497 162.077 14.9555 161.369 14.3795C161.208 14.2486 159.559 13.0727 159.361 12.64C158.886 11.5988 159.162 12.4095 159.227 11.1671C159.31 9.59608 162.528 5.15886 160.127 4.1413C159.07 3.69374 157.186 4.88477 156.173 5.27814C154.191 6.04799 152.185 6.70455 150.137 7.27068C151.118 5.32353 152.99 1.4257 149.472 2.46894C146.732 3.28172 144.178 5.37138 141.425 6.35446C142.336 4.86753 145.979 0.260007 142.687 0.0024504C141.663 -0.0777721 138.681 1.83561 137.578 2.24376C134.274 3.46645 130.9 4.25671 127.431 4.87913C115.636 6.99553 101.843 6.3921 90.9305 11.7385C82.5174 15.8601 74.21 22.2554 69.35 30.399C64.6657 38.2485 62.9137 46.839 61.9332 55.8338C61.2138 62.4349 61.1553 69.2584 61.4918 75.8835C61.6017 78.054 61.8469 88.0597 65.0141 85.0295C66.5921 83.5197 66.5805 77.4232 66.9779 75.3595C67.7688 71.2538 68.5302 67.1297 69.8488 63.1552C72.1727 56.1512 74.9139 48.6905 80.703 43.8666C84.4181 40.7713 87.0269 36.5878 90.5821 33.4651C92.1791 32.0626 90.9604 32.2086 93.528 32.3926C95.2529 32.5161 96.9856 32.5633 98.714 32.6083C102.712 32.7118 106.717 32.6854 110.716 32.6995C118.771 32.7283 126.788 32.8416 134.834 32.4218C138.41 32.2354 141.996 32.1344 145.562 31.805C147.555 31.621 151.09 30.3498 152.73 31.3213C154.23 32.21 155.789 35.1121 156.867 36.3007C159.413 39.1095 162.449 41.2548 165.426 43.558C171.634 48.3604 174.769 54.3923 176.654 61.8973C178.533 69.3745 178.006 76.3115 180.331 83.6698C180.74 84.9636 181.822 87.1936 183.156 85.1947C183.404 84.8235 183.34 82.7828 183.34 81.6086C183.34 76.8688 184.545 73.3125 184.53 68.5417C184.471 54.0362 184 35.1216 173.102 24.0365Z" fill="#1F1F1F"/>
<g filter="url(#filter0_d)">
<path fill-rule="evenodd" clip-rule="evenodd" d="M157.144 74.4573C166.54 74.4573 174.738 79.5602 179.095 87.134C179.317 87.0738 179.55 87.0416 179.791 87.0416H188.217C189.671 87.0416 190.85 88.2154 190.85 89.6633C190.85 91.1113 189.671 92.2851 188.217 92.2851L181.332 92.285C182.042 94.6075 182.424 97.0723 182.424 99.6259C182.424 113.526 171.106 124.795 157.144 124.795C143.183 124.795 131.865 113.526 131.865 99.6259C131.865 98.1386 131.995 96.6814 132.243 95.2649C132.162 90.6708 128.618 87.0416 124.347 87.0416C120.41 87.0416 117.09 90.1266 116.53 94.2084C116.916 95.9536 117.119 97.7662 117.119 99.6259C117.119 113.526 105.801 124.795 91.8397 124.795C77.8783 124.795 66.5604 113.526 66.5604 99.6259C66.5604 97.0723 66.9424 94.6075 67.6526 92.285L60.7673 92.2851C59.313 92.2851 58.134 91.1113 58.134 89.6633C58.134 88.2154 59.313 87.0416 60.7673 87.0416H69.1937C69.4345 87.0416 69.6677 87.0738 69.8893 87.134C74.2464 79.5602 82.4445 74.4573 91.8397 74.4573C101.69 74.4573 110.225 80.067 114.397 88.2529C116.585 84.9856 120.225 82.8468 124.347 82.8468C128.574 82.8468 132.294 85.0956 134.462 88.5042C138.585 80.1823 147.193 74.4573 157.144 74.4573ZM91.8397 78.652C80.2052 78.652 70.7736 88.0424 70.7736 99.6259C70.7736 111.209 80.2052 120.6 91.8397 120.6C103.474 120.6 112.906 111.209 112.906 99.6259C112.906 88.0424 103.474 78.652 91.8397 78.652ZM157.144 78.652C145.51 78.652 136.078 88.0424 136.078 99.6259C136.078 111.209 145.51 120.6 157.144 120.6C168.779 120.6 178.211 111.209 178.211 99.6259C178.211 88.0424 168.779 78.652 157.144 78.652Z" fill="black"/>
</g>
<path fill-rule="evenodd" clip-rule="evenodd" d="M157.144 74.4573C166.54 74.4573 174.738 79.5602 179.095 87.134C179.317 87.0738 179.55 87.0416 179.791 87.0416H188.217C189.671 87.0416 190.85 88.2154 190.85 89.6633C190.85 91.1113 189.671 92.2851 188.217 92.2851L181.332 92.285C182.042 94.6075 182.424 97.0723 182.424 99.6259C182.424 113.526 171.106 124.795 157.144 124.795C143.183 124.795 131.865 113.526 131.865 99.6259C131.865 98.1386 131.995 96.6814 132.243 95.2649C132.162 90.6708 128.618 87.0416 124.347 87.0416C120.41 87.0416 117.09 90.1266 116.53 94.2084C116.916 95.9536 117.119 97.7662 117.119 99.6259C117.119 113.526 105.801 124.795 91.8397 124.795C77.8783 124.795 66.5604 113.526 66.5604 99.6259C66.5604 97.0723 66.9424 94.6075 67.6526 92.285L60.7673 92.2851C59.313 92.2851 58.134 91.1113 58.134 89.6633C58.134 88.2154 59.313 87.0416 60.7673 87.0416H69.1937C69.4345 87.0416 69.6677 87.0738 69.8893 87.134C74.2464 79.5602 82.4445 74.4573 91.8397 74.4573C101.69 74.4573 110.225 80.067 114.397 88.2529C116.585 84.9856 120.225 82.8468 124.347 82.8468C128.574 82.8468 132.294 85.0956 134.462 88.5042C138.585 80.1823 147.193 74.4573 157.144 74.4573ZM91.8397 78.652C80.2052 78.652 70.7736 88.0424 70.7736 99.6259C70.7736 111.209 80.2052 120.6 91.8397 120.6C103.474 120.6 112.906 111.209 112.906 99.6259C112.906 88.0424 103.474 78.652 91.8397 78.652ZM157.144 78.652C145.51 78.652 136.078 88.0424 136.078 99.6259C136.078 111.209 145.51 120.6 157.144 120.6C168.779 120.6 178.211 111.209 178.211 99.6259C178.211 88.0424 168.779 78.652 157.144 78.652Z" fill="#252C2F"/>
<defs>
<filter id="filter0_d" x="42.9364" y="66.8585" width="163.111" height="80.7324" filterUnits="userSpaceOnUse" color-interpolation-filters="sRGB">
<feFlood flood-opacity="0" result="BackgroundImageFix"/>
<feColorMatrix in="SourceAlpha" type="matrix" values="0 0 0 0 0 0 0 0 0 0 0 0 0 0 0 0 0 0 127 0" result="hardAlpha"/>
<feOffset dy="7.59878"/>
<feGaussianBlur stdDeviation="7.59878"/>
<feColorMatrix type="matrix" values="0 0 0 0 0 0 0 0 0 0 0 0 0 0 0 0 0 0 0.1 0"/>
<feBlend mode="normal" in2="BackgroundImageFix" result="effect1_dropShadow"/>
<feBlend mode="normal" in="SourceGraphic" in2="effect1_dropShadow" result="shape"/>
</filter>
</defs>
</svg>
