<svg width="169" height="20" viewBox="0 0 169 20" fill="none" xmlns="http://www.w3.org/2000/svg">
<path d="M13.13 19L12.22 16.14H5.46L4.55 19H0L6.188 0.799999H11.492L17.68 19H13.13ZM6.708 12.24H10.972L8.84 5.558L6.708 12.24ZM23.0019 8.314C23.2445 7.482 23.7299 6.84933 24.4579 6.416C25.2032 5.96533 26.0179 5.74 26.9019 5.74V10.16C25.9485 10.004 25.0559 10.1687 24.2239 10.654C23.4092 11.122 23.0019 11.9453 23.0019 13.124V19H19.1019V6H23.0019V8.314ZM36.7238 9.744H34.0458V14.346C34.0458 14.866 34.2538 15.1953 34.6698 15.334C35.0858 15.4727 35.7704 15.516 36.7238 15.464V19C34.2451 19.26 32.5291 19.026 31.5758 18.298C30.6224 17.5527 30.1458 16.2353 30.1458 14.346V9.744H28.0658V6H30.1458V3.53L34.0458 2.36V6H36.7238V9.744ZM42.162 14.06C42.6127 15.2733 43.6527 15.88 45.282 15.88C46.3394 15.88 47.1714 15.5507 47.778 14.892L50.898 16.686C49.6154 18.4713 47.726 19.364 45.23 19.364C43.046 19.364 41.2954 18.714 39.978 17.414C38.678 16.114 38.028 14.476 38.028 12.5C38.028 10.5413 38.6694 8.912 39.952 7.612C41.252 6.29467 42.916 5.636 44.944 5.636C46.8334 5.636 48.402 6.29467 49.65 7.612C50.9154 8.912 51.548 10.5413 51.548 12.5C51.548 13.0547 51.496 13.5747 51.392 14.06H42.162ZM42.084 11.148H47.674C47.2927 9.77867 46.374 9.094 44.918 9.094C43.41 9.094 42.4654 9.77867 42.084 11.148ZM68.3201 5.636C69.8107 5.636 71.0067 6.13 71.9081 7.118C72.8094 8.08867 73.2601 9.38867 73.2601 11.018V19H69.3601V11.356C69.3601 10.6973 69.1954 10.1773 68.8661 9.796C68.5541 9.41467 68.0947 9.224 67.4881 9.224C66.8467 9.224 66.3441 9.44067 65.9801 9.874C65.6334 10.3073 65.4601 10.9053 65.4601 11.668V19H61.5601V11.356C61.5601 10.6973 61.3954 10.1773 61.0661 9.796C60.7541 9.41467 60.2947 9.224 59.6881 9.224C59.0467 9.224 58.5441 9.44067 58.1801 9.874C57.8334 10.3073 57.6601 10.9053 57.6601 11.668V19H53.7601V6H57.6601V7.196C58.3707 6.156 59.5321 5.636 61.1441 5.636C62.6521 5.636 63.7874 6.208 64.5501 7.352C65.3474 6.208 66.6041 5.636 68.3201 5.636ZM88.9261 19.364C87.0714 19.364 85.5201 18.9653 84.2721 18.168C83.0414 17.3533 82.1661 16.2527 81.6461 14.866L85.2341 12.786C85.9621 14.4673 87.2361 15.308 89.0561 15.308C90.7028 15.308 91.5261 14.814 91.5261 13.826C91.5261 13.2887 91.2574 12.8727 90.7201 12.578C90.2001 12.266 89.2121 11.9107 87.7561 11.512C86.9934 11.304 86.3261 11.07 85.7541 10.81C85.1821 10.55 84.6188 10.212 84.0641 9.796C83.5268 9.36267 83.1108 8.82533 82.8161 8.184C82.5388 7.54267 82.4001 6.806 82.4001 5.974C82.4001 4.29267 82.9981 2.94933 84.1941 1.944C85.4074 0.938666 86.8461 0.435999 88.5101 0.435999C90.0008 0.435999 91.3181 0.791332 92.4621 1.502C93.6061 2.19533 94.5074 3.20933 95.1661 4.544L91.6561 6.598C91.3268 5.90467 90.9194 5.38467 90.4341 5.038C89.9488 4.674 89.3074 4.492 88.5101 4.492C87.8861 4.492 87.4008 4.63067 87.0541 4.908C86.7248 5.168 86.5601 5.48867 86.5601 5.87C86.5601 6.32067 86.7681 6.71067 87.1841 7.04C87.6174 7.36933 88.5014 7.73333 89.8361 8.132C90.5641 8.35733 91.1274 8.53933 91.5261 8.678C91.9248 8.81667 92.4274 9.05067 93.0341 9.38C93.6581 9.692 94.1261 10.03 94.4381 10.394C94.7674 10.7407 95.0534 11.2087 95.2961 11.798C95.5561 12.37 95.6861 13.0287 95.6861 13.774C95.6861 15.5073 95.0621 16.8767 93.8141 17.882C92.5661 18.87 90.9368 19.364 88.9261 19.364ZM106.033 6H109.933V19H106.033V17.778C105.253 18.8353 104.014 19.364 102.315 19.364C100.928 19.364 99.7671 18.8873 98.8311 17.934C97.9124 16.9807 97.4531 15.6633 97.4531 13.982V6H101.353V13.41C101.353 14.1727 101.561 14.762 101.977 15.178C102.41 15.5767 102.956 15.776 103.615 15.776C104.36 15.776 104.95 15.5507 105.383 15.1C105.816 14.6493 106.033 13.982 106.033 13.098V6ZM125.273 19H120.853L116.693 13.254V19H112.793V0.799999H116.693V11.694L120.593 6H125.143L120.411 12.5L125.273 19ZM135.358 6H139.258V19H135.358V17.778C134.44 18.8353 133.148 19.364 131.484 19.364C129.768 19.364 128.304 18.7053 127.09 17.388C125.877 16.0533 125.27 14.424 125.27 12.5C125.27 10.576 125.877 8.95533 127.09 7.638C128.304 6.30333 129.768 5.636 131.484 5.636C133.148 5.636 134.44 6.16467 135.358 7.222V6ZM130.028 14.814C130.6 15.386 131.346 15.672 132.264 15.672C133.183 15.672 133.928 15.386 134.5 14.814C135.072 14.242 135.358 13.4707 135.358 12.5C135.358 11.5293 135.072 10.758 134.5 10.186C133.928 9.614 133.183 9.328 132.264 9.328C131.346 9.328 130.6 9.614 130.028 10.186C129.456 10.758 129.17 11.5293 129.17 12.5C129.17 13.4707 129.456 14.242 130.028 14.814ZM148.359 19.364C146.383 19.364 144.737 18.7053 143.419 17.388C142.119 16.0707 141.469 14.4413 141.469 12.5C141.469 10.5587 142.119 8.92933 143.419 7.612C144.737 6.29467 146.383 5.636 148.359 5.636C149.607 5.636 150.751 5.93933 151.791 6.546C152.849 7.15267 153.663 7.95867 154.235 8.964L150.829 10.94C150.361 9.96933 149.521 9.484 148.307 9.484C147.458 9.484 146.756 9.77 146.201 10.342C145.647 10.8967 145.369 11.616 145.369 12.5C145.369 13.384 145.647 14.112 146.201 14.684C146.756 15.2387 147.458 15.516 148.307 15.516C149.538 15.516 150.379 15.0307 150.829 14.06L154.235 16.01C153.663 17.0327 152.857 17.8473 151.817 18.454C150.777 19.0607 149.625 19.364 148.359 19.364ZM163.423 5.636C164.81 5.636 165.962 6.11267 166.881 7.066C167.817 8.01933 168.285 9.33667 168.285 11.018V19H164.385V11.59C164.385 10.8273 164.168 10.2467 163.735 9.848C163.319 9.432 162.782 9.224 162.123 9.224C161.378 9.224 160.788 9.44933 160.355 9.9C159.922 10.3507 159.705 11.018 159.705 11.902V19H155.805V0.799999H159.705V7.222C160.485 6.16467 161.724 5.636 163.423 5.636Z" fill="#141C3A"/>
</svg>
